<svg width="20" height="20" viewBox="0 0 20 20" fill="none" xmlns="http://www.w3.org/2000/svg">
<g id="1814106_location_map_marker_icon 2">
<g id="Group">
<g id="Icon-Location">
<path id="Fill-55" d="M10 17.4063L9.71875 17.0625C9.53125 16.8125 4.75 11.2188 4.75 7.87501C4.75 4.96876 7.125 2.625 10 2.625C12.875 2.625 15.25 5.00001 15.25 7.87501C15.25 11.2188 10.4687 16.8438 10.2812 17.0625L10 17.4063ZM10 3.34376C7.5 3.34376 5.5 5.375 5.5 7.84375C5.5 10.4688 8.96875 14.9375 10 16.2188C11.0313 14.9375 14.5 10.5 14.5 7.84375C14.5 5.375 12.5 3.34376 10 3.34376Z" fill="#1365A0"/>
<path id="Fill-56" d="M10 9.87501C8.90625 9.87501 8 8.96876 8 7.87501C8 6.78126 8.90625 5.875 10 5.875C11.0938 5.875 12 6.78126 12 7.87501C12 8.96876 11.0938 9.87501 10 9.87501ZM10 6.62501C9.3125 6.62501 8.75 7.18751 8.75 7.87501C8.75 8.56251 9.3125 9.12501 10 9.12501C10.6875 9.12501 11.25 8.56251 11.25 7.87501C11.25 7.18751 10.6875 6.62501 10 6.62501Z" fill="#1365A0"/>
</g>
</g>
</g>
</svg>
