<svg width="43" height="43" viewBox="0 0 43 43" fill="none" xmlns="http://www.w3.org/2000/svg">
<g id="Group">
<path id="Vector" d="M21.25 41.5C32.4338 41.5 41.5 32.4338 41.5 21.25C41.5 10.0662 32.4338 1 21.25 1C10.0662 1 1 10.0662 1 21.25C1 32.4338 10.0662 41.5 21.25 41.5Z" stroke="black" stroke-width="2" stroke-miterlimit="10" stroke-linejoin="round"/>
<path id="Vector_2" d="M34.75 36.0996C34.75 28.6436 28.7061 22.5996 21.25 22.5996C13.794 22.5996 7.75 28.6436 7.75 36.0996" stroke="black" stroke-width="2" stroke-miterlimit="10" stroke-linejoin="round"/>
<path id="Vector_3" d="M21.2499 22.6004C25.7234 22.6004 29.3499 18.9739 29.3499 14.5004C29.3499 10.0269 25.7234 6.40039 21.2499 6.40039C16.7764 6.40039 13.1499 10.0269 13.1499 14.5004C13.1499 18.9739 16.7764 22.6004 21.2499 22.6004Z" stroke="black" stroke-width="2" stroke-miterlimit="10" stroke-linejoin="round"/>
</g>
</svg>
